<svg xmlns="http://www.w3.org/2000/svg" viewBox="0 0 166.45 69.69"><defs><style>.cls-1{fill:#ffe512;}.cls-2{fill:#231f20;}.cls-3{fill:#0091c8;}</style></defs><title>pww_full</title><g id="Layer_2" data-name="Layer 2"><g id="Layer_1-2" data-name="Layer 1"><path class="cls-1" d="M159.88,30.62,157.59,44l-1.51,8.82-1.38,8.1a10.61,10.61,0,0,1-10.46,8.81H10.62A10.61,10.61,0,0,1,.16,57.29L5.34,27a10.61,10.61,0,0,1,10.45-8.82H149.42A10.61,10.61,0,0,1,159.88,30.62Z"/><path class="cls-1" d="M166.45,31.44a27.07,27.07,0,0,1-18.83,25.82c-.55.21-1.21.46-2,.71l-.1.17a26.1,26.1,0,0,1-12.92,11.55H110.46A31,31,0,0,1,90.65,46.1c-1.5-8.13.62-15.71,6-21.38a29,29,0,0,1,.54-6.5,22.67,22.67,0,0,1,7.17-12.69A22.72,22.72,0,0,1,119.63,0a31.38,31.38,0,0,1,3.21.17A27.58,27.58,0,0,1,135,4.11l.15-.05.68.5a26,26,0,0,1,3.52-.23A27.14,27.14,0,0,1,166.45,31.44Z"/><path class="cls-2" d="M23,28.75l-.74,4.11c-.37,2.09-2,3.48-4.82,3.48A5.54,5.54,0,0,1,15.34,36l-.54,3a1.27,1.27,0,0,1-1.2,1,.84.84,0,0,1-.84-1l1.82-10.3c.39-2.13,1.94-3.5,4.83-3.5S23.36,26.6,23,28.75Zm-2.06.11c.21-1.17-.15-2-1.81-2s-2.32.8-2.52,2l-.69,3.87c-.2,1.15.11,1.94,1.84,1.94a2.17,2.17,0,0,0,2.5-1.94Z"/><path class="cls-2" d="M32.83,28.75l-1.16,6.57a1.27,1.27,0,0,1-1.19,1,.83.83,0,0,1-.83-1L30.24,32H25.91l-.62,3.37a1.26,1.26,0,0,1-1.18,1,.83.83,0,0,1-.84-1l1.15-6.59c.39-2.13,1.95-3.5,4.84-3.5S33.21,26.6,32.83,28.75Zm-6.65,1.53h4.36l.24-1.42c.2-1.17-.15-2-1.82-2a2.17,2.17,0,0,0-2.52,2Z"/><path class="cls-2" d="M37,35.16s-.14,1.18-1.24,1.18-.81-1.09-.81-1.09L35.71,31l-1.93-4s-.67-1.13.2-1.65a.84.84,0,0,1,1.26.32L37,29.15l2.71-3.31c.28-.35,1-.93,1.66-.39s0,1.28,0,1.28L37.72,31Z"/><path class="cls-2" d="M47.25,32.82l1.15-6.58a1.26,1.26,0,0,1,1.2-1,.83.83,0,0,1,.84,1l-1.15,6.47c-.21,1.17.15,2,1.81,2s2.32-.79,2.52-2l1.15-6.47a1.24,1.24,0,0,1,1.21-1,.83.83,0,0,1,.83,1l-1.15,6.47c-.2,1.17.15,2,1.82,2s2.31-.79,2.52-2l1.14-6.47a1.25,1.25,0,0,1,1.19-1,.83.83,0,0,1,.85,1L62,32.82c-.39,2.15-2,3.52-4.84,3.52a4,4,0,0,1-3-1,5.43,5.43,0,0,1-3.37,1C48,36.34,46.86,35,47.25,32.82Z"/><path class="cls-2" d="M65.23,35.32a1.27,1.27,0,0,1-1.19,1,.84.84,0,0,1-.83-1h0l1.59-9.06a1.24,1.24,0,0,1,1.19-1,.83.83,0,0,1,.85,1C65.23,35.3,65.23,35.32,65.23,35.32Z"/><path class="cls-2" d="M76,26.06a1,1,0,0,1-1,.83H72.69c-1.48,8.41-1.48,8.43-1.48,8.43a1.26,1.26,0,0,1-1.18,1,.84.84,0,0,1-.86-1s0,0,1.5-8.43H68.32a.67.67,0,0,1-.68-.83,1,1,0,0,1,1-.83h6.72A.67.67,0,0,1,76,26.06Z"/><path class="cls-2" d="M83.38,35.32a1.29,1.29,0,0,1-1.21,1,.83.83,0,0,1-.83-1s0,0,.59-3.37H77.59C77,35.3,77,35.32,77,35.32a1.26,1.26,0,0,1-1.2,1,.84.84,0,0,1-.84-1s0,0,1.62-9.08a1.24,1.24,0,0,1,1.18-1,.82.82,0,0,1,.84,1l-.71,4h4.34l.72-4a1.24,1.24,0,0,1,1.19-1,.82.82,0,0,1,.83,1C83.38,35.3,83.38,35.32,83.38,35.32Z"/><path class="cls-2" d="M9.67,56.62l2-11.36a2.19,2.19,0,0,1,2.08-1.76,1.43,1.43,0,0,1,1.44,1.76l-2,11.17c-.35,2,.26,3.39,3.14,3.39s4-1.38,4.35-3.39l2-11.17a2.16,2.16,0,0,1,2.08-1.76,1.43,1.43,0,0,1,1.44,1.76l-2,11.17c-.35,2,.25,3.39,3.13,3.39s4-1.38,4.35-3.39l2-11.17a2.15,2.15,0,0,1,2-1.76,1.44,1.44,0,0,1,1.47,1.76l-2,11.36c-.67,3.71-3.36,6.08-8.35,6.08-2.46,0-4.19-.61-5.18-1.67a9.34,9.34,0,0,1-5.83,1.67C10.89,62.7,9,60.33,9.67,56.62Z"/><path class="cls-2" d="M53.59,49.58l-2,11.36a2.17,2.17,0,0,1-2,1.76,1.43,1.43,0,0,1-1.44-1.76l1-5.83H41.62l-1,5.83a2.18,2.18,0,0,1-2,1.76,1.43,1.43,0,0,1-1.44-1.76l2-11.39c.67-3.68,3.36-6,8.35-6S54.23,45.87,53.59,49.58ZM42.1,52.23h7.52L50,49.77c.35-2-.26-3.39-3.14-3.39s-4,1.37-4.35,3.39Z"/><path class="cls-2" d="M69.91,45.39,62.2,61a3.33,3.33,0,0,1-2.66,1.73,2,2,0,0,1-2-1.73L55.29,45.39a1.9,1.9,0,0,1,1.44-1.8,1.24,1.24,0,0,1,1.72.93l1.7,14.34,6.56-14.27a1.87,1.87,0,0,1,2.3-1A1.42,1.42,0,0,1,69.91,45.39Z"/><path class="cls-2" d="M84.83,49.58l-.74,4.09a1.77,1.77,0,0,1-1.69,1.44H72.86l-.26,1.35c-.35,2,.2,3.36,3.17,3.36h5.79a1.2,1.2,0,0,1,1.22,1.44,1.83,1.83,0,0,1-1.7,1.44H75.23c-5,0-6.82-2.31-6.18-6l1.25-7.13c.67-3.68,3.36-6,8.35-6S85.47,45.87,84.83,49.58Zm-4,2.65.42-2.46c.35-2-.26-3.39-3.14-3.39s-4,1.37-4.35,3.39l-.45,2.46Z"/><path class="cls-3" d="M108.38,45a34,34,0,0,1-8-16.92c-4.09,4.28-6.07,10.16-4.78,17.14,4.29,23.12,35.05,29.34,45.63,10.5a36.91,36.91,0,0,1-8.19.94C125.52,56.64,116.36,54.19,108.38,45Z"/><path class="cls-3" d="M139.34,9.33a22.74,22.74,0,0,0-4.41.44l-.34.07-.29-.2,0,0c-9.89,3.3-17.82,13.86-17.42,23.84.17,4.37,1.24,7.83,3.15,10.37a12.28,12.28,0,0,1-.54-2.67c-.46-5.71,3.15-10.68,8-11.09a8.28,8.28,0,0,1,6.58,2.57,11.62,11.62,0,0,1,.69,15.19,8.22,8.22,0,0,1-5.58,3q-.3,0-.63,0a8.38,8.38,0,0,1-5.86-2.53,11.79,11.79,0,0,1-2-1.35c-3.39-2.86-5.23-7.37-5.47-13.42-.41-10.24,7.4-21.06,17.38-25A22.72,22.72,0,0,0,122.4,5.16,23.63,23.63,0,0,0,119.63,5a17.77,17.77,0,0,0-12,4.29h0c-8.78,7.72-7.91,23.25,1.94,34.63,13.8,15.92,31.33,10.63,36.37,8.63a22.11,22.11,0,0,0-6.6-43.22Z"/></g></g></svg>